<svg width="69" height="63" viewBox="0 0 69 63" fill="none" xmlns="http://www.w3.org/2000/svg">
<g clip-path="url(#clip0_22_24)">
<path d="M69.1667 18.0049V58.5604C69.1667 61.1962 67.0571 63.3306 64.4518 63.3306H53.4457V36.2956L34.5833 50.612L15.721 36.2956V63.3335H4.71486C4.09546 63.3335 3.48212 63.21 2.9099 62.9701C2.33768 62.7302 1.81779 62.3786 1.37993 61.9353C0.942079 61.492 0.594845 60.9658 0.358071 60.3867C0.121296 59.8077 -0.00037773 59.1871 8.80871e-07 58.5604V18.0049C8.80871e-07 12.1063 6.65441 8.73861 11.3174 12.2784L15.721 15.6227L34.5833 29.9333L53.4457 15.6169L57.8493 12.2784C62.5094 8.74152 69.1667 12.1063 69.1667 18.0049Z" fill="#F8F8F8"/>
</g>
<defs>
<clipPath id="clip0_22_24">
<rect width="69" height="63" fill="white"/>
</clipPath>
</defs>
</svg>
