<svg width="69" height="69" viewBox="0 0 69 69" fill="none" xmlns="http://www.w3.org/2000/svg">
<g clip-path="url(#clip0_22_16)">
<path d="M34.5027 24.0994C31.7442 24.0994 29.0988 25.1952 27.1482 27.1457C25.1977 29.0963 24.1019 31.7417 24.1019 34.5002C24.1019 37.2586 25.1977 39.9041 27.1482 41.8546C29.0988 43.8051 31.7442 44.9009 34.5027 44.9009C37.2611 44.9009 39.9066 43.8051 41.8571 41.8546C43.8076 39.9041 44.9034 37.2586 44.9034 34.5002C44.9034 31.7417 43.8076 29.0963 41.8571 27.1457C39.9066 25.1952 37.2611 24.0994 34.5027 24.0994ZM34.5027 17.1656C39.1001 17.1656 43.5092 18.9919 46.7601 22.2428C50.0109 25.4937 51.8372 29.9028 51.8372 34.5002C51.8372 39.0976 50.0109 43.5067 46.7601 46.7576C43.5092 50.0084 39.1001 51.8347 34.5027 51.8347C29.9053 51.8347 25.4961 50.0084 22.2453 46.7576C18.9944 43.5067 17.1681 39.0976 17.1681 34.5002C17.1681 29.9028 18.9944 25.4937 22.2453 22.2428C25.4961 18.9919 29.9053 17.1656 34.5027 17.1656ZM57.0376 16.2989C57.0376 17.4482 56.581 18.5505 55.7683 19.3632C54.9556 20.1759 53.8533 20.6325 52.704 20.6325C51.5546 20.6325 50.4523 20.1759 49.6396 19.3632C48.8269 18.5505 48.3703 17.4482 48.3703 16.2989C48.3703 15.1495 48.8269 14.0473 49.6396 13.2345C50.4523 12.4218 51.5546 11.9652 52.704 11.9652C53.8533 11.9652 54.9556 12.4218 55.7683 13.2345C56.581 14.0473 57.0376 15.1495 57.0376 16.2989ZM34.5027 6.76488C25.9255 6.76488 24.5249 6.78915 20.5345 6.96596C17.8164 7.09424 15.9928 7.45826 14.301 8.11697C12.8851 8.6368 11.6051 9.46998 10.5567 10.5542C9.47158 11.6026 8.63726 12.8825 8.116 14.2985C7.45728 15.9973 7.09326 17.8174 6.96845 20.532C6.78817 24.3595 6.7639 25.6977 6.7639 34.5002C6.7639 43.0808 6.78817 44.4779 6.96498 48.4684C7.09326 51.183 7.45728 53.01 8.11253 54.6984C8.70191 56.2065 9.39529 57.2917 10.5463 58.4427C11.7147 59.6076 12.7998 60.3044 14.2906 60.8799C16.0032 61.5421 17.8268 61.9096 20.531 62.0344C24.3585 62.2147 25.6967 62.2355 34.4992 62.2355C43.0798 62.2355 44.477 62.2112 48.4674 62.0344C51.1785 61.9061 53.0021 61.5421 54.6974 60.8868C56.112 60.3645 57.3914 59.5316 58.4417 58.4496C59.61 57.2847 60.3069 56.1996 60.8824 54.7053C61.5411 52.9996 61.9086 51.176 62.0334 48.4649C62.2137 44.6409 62.2345 43.2992 62.2345 34.5002C62.2345 25.923 62.2102 24.5224 62.0334 20.532C61.9051 17.8209 61.5376 15.9903 60.8824 14.2985C60.3598 12.884 59.527 11.6046 58.4452 10.5542C57.3972 9.46854 56.1172 8.63412 54.7009 8.11351C53.0021 7.45479 51.1785 7.09077 48.4674 6.96596C44.6434 6.78568 43.3052 6.76488 34.4992 6.76488M34.4992 -0.168945C43.9188 -0.168945 45.0941 -0.134276 48.7933 0.0390692C52.4821 0.212415 54.999 0.79139 57.2075 1.65118C59.4956 2.53178 61.4232 3.7244 63.3508 5.64853C65.1137 7.38163 66.4778 9.47805 67.3482 11.7919C68.2045 14.0003 68.787 16.5173 68.9603 20.2096C69.1233 23.9053 69.1683 25.0806 69.1683 34.5002C69.1683 43.9198 69.1337 45.0951 68.9603 48.7908C68.787 52.483 68.2045 54.9966 67.3482 57.2084C66.4802 59.5235 65.1158 61.6204 63.3508 63.3518C61.6173 65.1141 59.521 66.4781 57.2075 67.3492C54.999 68.2055 52.4821 68.7879 48.7933 68.9613C45.0941 69.1242 43.9188 69.1693 34.4992 69.1693C25.0796 69.1693 23.9043 69.1346 20.2051 68.9613C16.5163 68.7879 14.0028 68.2055 11.7909 67.3492C9.47616 66.4806 7.37937 65.1163 5.64756 63.3518C3.88439 61.6189 2.52026 59.5225 1.65021 57.2084C0.790413 55 0.211438 52.483 0.0380926 48.7908C-0.128319 45.0951 -0.169922 43.9198 -0.169922 34.5002C-0.169922 25.0806 -0.135253 23.9053 0.0380926 20.2096C0.211438 16.5173 0.790413 14.0038 1.65021 11.7919C2.51775 9.47663 3.88222 7.37964 5.64756 5.64853C7.37987 3.88468 9.47651 2.52044 11.7909 1.65118C13.9993 0.79139 16.5129 0.212415 20.2051 0.0390692C23.9078 -0.123876 25.0831 -0.168945 34.5027 -0.168945" fill="#F8F8F8"/>
</g>
<defs>
<clipPath id="clip0_22_16">
<rect width="69" height="69" fill="white"/>
</clipPath>
</defs>
</svg>
