<svg width="69" height="69" viewBox="0 0 69 69" fill="none" xmlns="http://www.w3.org/2000/svg">
<g clip-path="url(#clip0_22_20)">
<path d="M61.4815 0C63.5197 0 65.4745 0.809686 66.9157 2.25094C68.357 3.69219 69.1667 5.64695 69.1667 7.68518V61.4815C69.1667 63.5197 68.357 65.4745 66.9157 66.9157C65.4745 68.357 63.5197 69.1667 61.4815 69.1667H7.68518C5.64695 69.1667 3.69219 68.357 2.25094 66.9157C0.809686 65.4745 0 63.5197 0 61.4815V7.68518C0 5.64695 0.809686 3.69219 2.25094 2.25094C3.69219 0.809686 5.64695 0 7.68518 0H61.4815ZM59.5602 59.5602V39.1944C59.5602 35.8721 58.2404 32.6859 55.8912 30.3366C53.5419 27.9874 50.3557 26.6676 47.0333 26.6676C43.7671 26.6676 39.963 28.6657 38.1185 31.663V27.3977H27.3977V59.5602H38.1185V40.6162C38.1185 37.6574 40.5009 35.2366 43.4597 35.2366C44.8865 35.2366 46.2548 35.8034 47.2637 36.8122C48.2726 37.8211 48.8394 39.1894 48.8394 40.6162V59.5602H59.5602ZM14.9093 21.3648C16.6214 21.3648 18.2634 20.6847 19.474 19.474C20.6847 18.2634 21.3648 16.6214 21.3648 14.9093C21.3648 11.3356 18.4829 8.41528 14.9093 8.41528C13.1869 8.41528 11.5352 9.09946 10.3173 10.3173C9.09946 11.5352 8.41528 13.1869 8.41528 14.9093C8.41528 18.4829 11.3356 21.3648 14.9093 21.3648ZM20.2505 59.5602V27.3977H9.60648V59.5602H20.2505Z" fill="#F8F8F8"/>
</g>
<defs>
<clipPath id="clip0_22_20">
<rect width="69" height="69" fill="white"/>
</clipPath>
</defs>
</svg>
